<svg width="32" height="81" viewBox="0 0 32 81" fill="none" xmlns="http://www.w3.org/2000/svg">
<path d="M14.9201 54.05C14.6868 54.05 14.4701 53.9333 14.2701 53.7L7.32012 44.75C7.12012 44.4833 7.02012 44.2167 7.02012 43.95C7.02012 43.65 7.18678 43.3167 7.52012 42.95L14.2701 34.2C14.4701 34 14.6868 33.9 14.9201 33.9C15.6201 33.9 15.9701 34.2333 15.9701 34.9C15.9701 35.0667 15.9201 35.2333 15.8201 35.4L9.17012 43.95L15.8201 52.5C15.9535 52.6667 16.0201 52.8333 16.0201 53C16.0201 53.2333 15.8701 53.4833 15.5701 53.75C15.3368 53.95 15.1201 54.05 14.9201 54.05Z" fill="black"/>
<path d="M20.2701 46C19.5701 46 19.2201 45.6667 19.2201 45C19.2201 44.8 19.2868 44.6333 19.4201 44.5L26.0201 35.95L19.4201 27.4C19.2868 27.2667 19.2201 27.1 19.2201 26.9C19.2201 26.2333 19.5701 25.9 20.2701 25.9C20.5701 25.9 20.7868 26 20.9201 26.2L27.8701 35.15C28.0701 35.3833 28.1701 35.65 28.1701 35.95C28.1701 36.2167 28.0201 36.55 27.7201 36.95L20.9201 45.7C20.7868 45.9 20.5701 46 20.2701 46Z" fill="black"/>
</svg>
